<svg width="136" height="55" viewBox="0 0 136 55" fill="none" xmlns="http://www.w3.org/2000/svg">
<g clip-path="url(#clip0_38_25)">
<mask id="mask0_38_25" style="mask-type:luminance" maskUnits="userSpaceOnUse" x="0" y="17" width="137" height="22">
<path d="M136.5 17H0.5V38.6437H136.5V17Z" fill="white"/>
</mask>
<g mask="url(#mask0_38_25)">
<path fill-rule="evenodd" clip-rule="evenodd" d="M16.1712 17C16.1712 17 16.1016 17.0348 15.1439 17.0696C14.221 17.1045 12.3666 17.1393 8.68385 17.1393H7.909C4.40039 17.1393 3.12057 17.1045 2.19771 17.0696C1.52973 17.0435 1.3445 17.0173 1.26408 17.0059C1.23758 17.0021 1.22246 17 1.2052 17C0.96143 17 0.5 17 0.5 17.4963C0.5 17.9781 1.00069 18.0249 1.70718 18.091L1.77111 18.097C3.54718 18.2015 3.54718 19.1591 3.54718 20.6131V35.2918C3.54718 36.4671 3.54718 37.2855 2.0323 37.3726L1.97374 37.3782C1.3712 37.4355 0.978843 37.4729 0.978843 37.8862C0.978843 38.339 1.37062 38.339 1.6144 38.339C1.90968 38.339 2.71307 38.3068 3.49408 38.2755C4.23268 38.2459 4.95173 38.2171 5.20136 38.2171C5.70306 38.2171 6.35998 38.2477 7.01545 38.2782C7.66808 38.3086 8.31928 38.339 8.81445 38.339C9.05822 38.339 9.45 38.339 9.45 37.8862C9.45 37.4335 9.0321 37.3987 8.39655 37.3726C6.89037 37.2855 6.89037 36.4671 6.89037 35.2308V29.7894C6.89037 28.7882 6.89037 28.3877 7.46498 28.231C7.83935 28.1266 9.47612 28.1266 10.5209 28.1266C11.4089 28.1266 13.6725 28.1266 14.1688 30.0419C14.2055 30.1337 14.2881 30.4333 14.3708 30.7332C14.4451 31.0025 14.5194 31.272 14.5606 31.3914L14.5624 31.3968C14.6244 31.5738 14.7645 31.9745 15.1265 31.9573C15.5531 31.9399 15.5531 31.5307 15.5531 31.2869L15.4138 29.624C15.3441 28.8056 15.3441 28.2049 15.3441 27.8915C15.3441 27.6215 15.3711 26.8652 15.3977 26.1218C15.4234 25.4031 15.4486 24.6964 15.4486 24.4525C15.4486 24.0956 15.3441 23.8692 15.022 23.8518C14.7086 23.8344 14.5257 24.1391 14.4561 24.4177C14.0034 26.2547 13.4984 27.0383 10.6253 27.0383C10.0943 27.0383 7.98736 27.0383 7.45628 26.9686C6.99485 26.899 6.89037 26.8642 6.89037 24.9488V19.9949C6.89037 18.3321 7.4911 18.2624 8.70127 18.2624C14.2123 18.2624 14.6737 19.0199 15.7359 21.3792C15.747 21.4045 15.7582 21.4305 15.7696 21.4571C15.8921 21.742 16.0392 22.0844 16.3976 22.0844C16.7894 22.0844 16.7894 21.5185 16.7894 21.4141V17.6617C16.7719 17.1741 16.7371 17 16.1712 17ZM85.1159 28.8841C83.1134 28.057 81.6595 27.4301 81.6595 25.654C81.6595 24.6789 82.4431 23.2598 84.3845 23.286C86.4653 23.3034 86.9093 24.6877 87.2141 25.654C87.4665 26.4289 87.5623 26.5769 87.8148 26.5769C88.163 26.5769 88.163 26.3767 88.163 25.8282C88.163 23.6255 88.163 23.3991 87.8583 23.225C87.5101 23.0509 86.03 22.6504 84.5848 22.6504C81.407 22.6504 79.6571 24.6528 79.6571 26.9513C79.6571 29.6067 81.6334 30.5818 83.6619 31.4785C85.4641 32.3056 87.1618 33.2546 87.1618 35.2048C87.1618 37.155 85.1855 37.9211 84.1408 37.9211C82.3647 37.9211 80.6496 36.4236 80.1707 34.2384L80.1618 34.1986L80.154 34.1625C80.1102 33.9591 80.0673 33.7595 79.866 33.7595C79.5613 33.7595 79.5526 34.1078 79.5526 34.2123C79.5352 35.1177 79.6484 36.1886 79.6832 36.5107C79.7528 37.1288 79.8486 37.6338 80.1272 37.8428C80.5799 38.1649 81.8162 38.6437 83.7664 38.6437C87.0922 38.6437 89.1469 36.3192 89.1469 33.5419C89.1469 30.7124 86.5176 29.4848 85.1159 28.8841ZM132.251 25.0446C132.251 26.22 133.2 27.1689 134.376 27.1689C135.551 27.1689 136.5 26.2112 136.5 25.0446C136.5 23.8693 135.551 22.9203 134.376 22.9203C133.2 22.9203 132.251 23.8693 132.251 25.0446ZM132.495 25.0359C132.495 23.9999 133.34 23.1292 134.376 23.1292C135.412 23.1292 136.256 23.9999 136.256 25.0359C136.256 26.0719 135.412 26.9426 134.376 26.9426C133.34 26.9426 132.495 26.0719 132.495 25.0359ZM134.358 25.2013L134.942 26.159V26.1677H135.246L134.654 25.1839C134.959 25.0968 135.185 24.8792 135.185 24.5396C135.185 24.1479 134.846 23.8606 134.454 23.8606H133.705V26.159H133.967V25.2013H134.358ZM133.967 24.1043H134.428C134.715 24.1043 134.924 24.2698 134.924 24.5222C134.924 24.7747 134.707 24.9401 134.428 24.9401H133.967V24.1043ZM103.831 22.9695C103.859 22.9659 103.875 22.9637 103.895 22.9637C104.191 22.9637 104.191 23.1553 104.165 23.7212V25.9761C104.165 26.098 104.165 26.394 103.921 26.394C103.655 26.394 103.609 26.3006 103.18 25.4264L103.164 25.3928C102.885 24.7921 102.337 23.9127 99.2808 23.8344C98.5669 23.8605 98.4885 23.9998 98.4885 24.6353V35.8141C98.4885 36.8154 98.4885 37.4857 99.7161 37.5554C100.239 37.5815 100.578 37.6076 100.578 37.9733C100.578 38.3389 100.265 38.3389 100.064 38.3389C99.6649 38.3389 99.1465 38.3151 98.6266 38.2913C98.1039 38.2673 97.5798 38.2432 97.1739 38.2432C96.9764 38.2432 96.4118 38.2655 95.8276 38.2886C95.2016 38.3133 94.5527 38.3389 94.3095 38.3389C94.1093 38.3389 93.7959 38.3389 93.7959 37.9733C93.7959 37.6409 94.1052 37.6099 94.5801 37.5623L94.6491 37.5554C95.8766 37.4857 95.8767 36.8241 95.8767 35.8664V24.4612C95.8767 23.9127 95.7286 23.8257 95.3804 23.8257C92.0459 23.8518 91.4626 24.7659 91.1753 25.3928C90.74 26.2982 90.6877 26.394 90.4178 26.394C90.1741 26.394 90.1741 26.098 90.1741 25.9761V23.7212C90.1741 23.164 90.1741 22.9637 90.4701 22.9637C90.4936 22.9637 90.5124 22.9661 90.5444 22.9701C90.619 22.9794 90.7652 22.9977 91.2101 23.016C91.8718 23.0421 93.1255 23.0682 95.6503 23.0682H98.7149C101.248 23.0682 102.493 23.0421 103.155 23.016C103.616 22.9973 103.761 22.9786 103.831 22.9695ZM77.3935 34.4386C77.1758 34.4386 77.1236 34.5344 76.6796 35.3963C75.6 37.4858 74.0851 37.4858 73.0055 37.4858C70.9422 37.4858 70.4285 37.2159 70.4285 35.4746V31.2608C70.4285 30.5295 70.62 30.5295 71.7954 30.5295C73.8065 30.5295 74.4943 30.5556 75.008 32.4449C75.1299 32.915 75.2779 33.0369 75.4694 33.0369C75.7654 33.0369 75.7654 32.6974 75.7654 32.5493C75.7654 32.4457 75.7468 32.1673 75.7288 31.8985C75.7121 31.648 75.6958 31.4058 75.6958 31.3218C75.6958 31.0207 75.7499 30.1023 75.7978 29.2899C75.8358 28.6456 75.8699 28.0678 75.8699 27.9176C75.8699 27.6477 75.748 27.5694 75.6 27.5694C75.4781 27.5694 75.3562 27.6216 75.2343 27.935C74.7903 29.2323 74.5726 29.7721 71.8476 29.7721C70.4285 29.7721 70.4285 29.5718 70.4285 28.7883V25.2361C70.4285 24.0085 70.5243 23.8431 71.7518 23.8431C75.2343 23.8431 75.8263 24.7747 76.1137 25.4102L76.1302 25.4439C76.5588 26.318 76.6046 26.4115 76.8711 26.4115C77.1149 26.4115 77.1149 26.1154 77.1149 25.9936V23.7386C77.1149 23.1727 77.1149 22.9812 76.8189 22.9812C76.799 22.9812 76.7826 22.9833 76.7546 22.987C76.6845 22.9961 76.5415 23.0148 76.0875 23.0334C75.4259 23.0596 74.1722 23.0857 71.6474 23.0857H70.472C68.3825 23.0857 67.3291 23.0596 66.7893 23.0334C66.3964 23.0144 66.2756 22.9954 66.2188 22.9865C66.1976 22.9831 66.1854 22.9812 66.1711 22.9812C65.997 22.9812 65.6836 22.9812 65.6836 23.3295C65.6836 23.6951 66.0318 23.7212 66.5629 23.7474C67.7905 23.8257 67.7905 24.4787 67.7905 25.4886V35.8403C67.7905 36.8415 67.7905 37.5119 66.5629 37.5815L66.4843 37.5894C66.0123 37.6365 65.6836 37.6692 65.6836 37.9994C65.6836 38.3651 66.0057 38.3651 66.1973 38.3651C66.3007 38.3651 66.4103 38.3559 66.5643 38.3429C66.6696 38.3341 66.7957 38.3235 66.9547 38.3129C67.3465 38.2868 67.9559 38.2606 68.9658 38.2606H69.2619C69.3398 38.2606 69.6955 38.2679 70.2196 38.2786C70.6905 38.2881 71.2974 38.3005 71.9608 38.3129C73.3799 38.339 75.095 38.3651 76.3487 38.3651C77.0626 38.3651 77.3064 38.0952 77.3325 37.6251C77.3728 37.1593 77.4638 36.5163 77.5427 35.9588C77.6171 35.4325 77.6808 34.9826 77.6808 34.8304C77.6808 34.665 77.6111 34.4386 77.3935 34.4386ZM116.702 35.3963C117.146 34.5344 117.198 34.4386 117.416 34.4386C117.634 34.4386 117.703 34.665 117.703 34.8304C117.703 34.9826 117.64 35.4325 117.565 35.9588C117.486 36.5163 117.395 37.1594 117.355 37.6251C117.329 38.0952 117.085 38.3651 116.371 38.3651C115.117 38.3651 113.402 38.339 111.983 38.3129C111.324 38.3006 110.72 38.2883 110.25 38.2787L110.245 38.2786H110.243C109.719 38.2679 109.362 38.2606 109.284 38.2606H108.988C107.978 38.2606 107.369 38.2868 106.977 38.3129C106.818 38.3235 106.692 38.3341 106.587 38.3429C106.433 38.3559 106.323 38.3651 106.22 38.3651C106.028 38.3651 105.706 38.3651 105.706 37.9994C105.706 37.6692 106.035 37.6365 106.507 37.5894L106.585 37.5815C107.813 37.5119 107.813 36.8415 107.813 35.8403V25.4886C107.813 24.4787 107.813 23.8257 106.585 23.7474C106.054 23.7212 105.706 23.6951 105.706 23.3295C105.706 22.9812 106.019 22.9812 106.194 22.9812C106.208 22.9812 106.22 22.9831 106.241 22.9865C106.298 22.9954 106.419 23.0144 106.812 23.0334C107.352 23.0596 108.405 23.0857 110.494 23.0857H111.67C114.195 23.0857 115.448 23.0596 116.11 23.0334C116.564 23.0148 116.707 22.9961 116.777 22.987C116.805 22.9833 116.821 22.9812 116.841 22.9812C117.137 22.9812 117.137 23.1727 117.137 23.7386V25.9936C117.137 26.1154 117.137 26.4115 116.894 26.4115C116.627 26.4115 116.581 26.3181 116.153 25.444L116.136 25.4102C115.849 24.7747 115.257 23.8431 111.774 23.8431C110.547 23.8431 110.451 24.0085 110.451 25.2361V28.7883C110.451 29.5718 110.451 29.7721 111.87 29.7721C114.595 29.7721 114.813 29.2323 115.257 27.935C115.379 27.6216 115.501 27.5694 115.622 27.5694C115.77 27.5694 115.892 27.6477 115.892 27.9176C115.892 28.0678 115.858 28.6454 115.82 29.2897C115.772 30.1021 115.718 31.0207 115.718 31.3218C115.718 31.4058 115.734 31.6478 115.751 31.8983C115.769 32.1671 115.788 32.4457 115.788 32.5493C115.788 32.6974 115.788 33.0369 115.492 33.0369C115.3 33.0369 115.152 32.915 115.03 32.4449C114.517 30.5556 113.829 30.5295 111.818 30.5295C110.642 30.5295 110.451 30.5295 110.451 31.2608V35.4746C110.451 37.2159 110.965 37.4858 113.028 37.4858C114.108 37.4858 115.622 37.4858 116.702 35.3963ZM17.7383 30.6166C17.7383 26.1067 21.3601 22.6591 26.1659 22.6591C30.8063 22.6591 34.4194 26.0893 34.4281 30.3902C34.4281 35.2396 30.432 38.6437 26.0963 38.6437C21.7606 38.6437 17.7383 35.3963 17.7383 30.6166ZM20.6287 30.0942C20.6287 34.1252 22.9881 37.9559 26.2878 37.9559C29.7181 37.9559 31.5115 34.099 31.5115 30.486C31.5115 27.5258 29.7616 23.3468 25.8699 23.3468C22.8401 23.3468 20.6287 26.5595 20.6287 30.0942ZM47.2459 36.0663C47.7229 36.9014 48.0625 37.4959 48.741 37.5989C49.2547 37.6773 49.3679 37.773 49.394 38.0342C49.394 38.2867 49.1502 38.3302 48.9761 38.3302H45.7461C45.3236 38.3302 45.2164 38.1253 44.9746 37.663L44.9364 37.5902L41.9676 32.0008C41.4278 30.9474 41.3059 30.8516 40.2002 30.8516C39.7823 30.8516 39.7301 30.9996 39.7301 31.4175V35.8316C39.7301 36.8589 39.7301 37.5293 40.9577 37.5989C41.4887 37.625 41.837 37.6512 41.837 38.0168C41.837 38.3431 41.5542 38.3407 41.361 38.3392L41.3233 38.3389C41.0063 38.3389 39.7812 38.2937 39.0143 38.2654C38.6649 38.2526 38.4106 38.2432 38.3806 38.2432C38.1748 38.2432 37.5891 38.2664 36.9944 38.29C36.3815 38.3143 35.7591 38.3389 35.5337 38.3389L35.4976 38.3391C35.3043 38.3407 35.02 38.3429 35.02 37.9994C35.02 37.6599 35.3857 37.6337 35.8993 37.6076C37.1008 37.5119 37.1008 36.8676 37.1008 35.8403V25.445C37.1008 24.4438 37.1008 23.7734 35.8993 23.7038C35.3683 23.6777 35.02 23.6602 35.02 23.312C35.02 22.9637 35.1158 22.9637 35.9255 22.9637C36.0414 22.9637 36.3741 22.9854 36.723 23.0081C37.1075 23.0332 37.5115 23.0595 37.6667 23.0595C37.9883 23.0595 38.9227 23.0369 39.8833 23.0136C40.8991 22.989 41.9442 22.9637 42.3245 22.9637C46.669 22.9637 47.0346 25.95 47.0346 26.8119C47.0346 29.685 44.5098 30.2683 43.674 30.4424L43.7256 30.4751C44.0208 30.6616 44.3146 30.8471 44.8493 31.818L47.2261 36.0318L47.2459 36.0663ZM39.7127 29.3193C39.7127 30.1725 39.7127 30.2247 40.9403 30.2247C41.8283 30.2247 44.2486 30.2247 44.2486 27.1689C44.2486 26.2808 43.9004 23.6602 40.8619 23.6602C39.7388 23.6602 39.7127 24.2436 39.7127 25.2013V29.3193ZM64.1251 37.5989C63.4466 37.4959 63.107 36.9014 62.6299 36.0663L62.6102 36.0318L60.2334 31.818C59.6986 30.8471 59.4048 30.6616 59.1096 30.4751L59.058 30.4424C59.8938 30.2683 62.4187 29.685 62.4187 26.8119C62.4187 25.95 62.053 22.9637 57.7086 22.9637C57.3282 22.9637 56.2832 22.989 55.2674 23.0136C54.3068 23.0369 53.3723 23.0595 53.0507 23.0595C52.8956 23.0595 52.4915 23.0332 52.1071 23.0082C51.7582 22.9854 51.4255 22.9637 51.3095 22.9637C50.4998 22.9637 50.4041 22.9637 50.4041 23.312C50.4041 23.6602 50.7523 23.6777 51.2834 23.7038C52.4848 23.7734 52.4848 24.4438 52.4848 25.445V35.8403C52.4848 36.8676 52.4848 37.5119 51.2834 37.6076C50.7697 37.6337 50.4041 37.6599 50.4041 37.9994C50.4041 38.3429 50.6884 38.3407 50.8816 38.3391L50.9177 38.3389C51.1431 38.3389 51.7655 38.3143 52.3784 38.29C52.9731 38.2664 53.5589 38.2432 53.7647 38.2432C53.7946 38.2432 54.0489 38.2526 54.3983 38.2654C55.1652 38.2937 56.3904 38.3389 56.7074 38.3389L56.7451 38.3392C56.9383 38.3407 57.221 38.3431 57.221 38.0168C57.221 37.6512 56.8728 37.625 56.3417 37.5989C55.1141 37.5293 55.1141 36.8589 55.1141 35.8316V31.4175C55.1141 30.9996 55.1664 30.8516 55.5843 30.8516C56.6899 30.8516 56.8118 30.9474 57.3516 32.0008L60.3204 37.5902L60.3586 37.663C60.6005 38.1253 60.7077 38.3302 61.1301 38.3302H64.3601C64.5343 38.3302 64.778 38.2867 64.778 38.0342C64.7519 37.773 64.6387 37.6773 64.1251 37.5989ZM56.3243 30.2247C55.0967 30.2247 55.0967 30.1725 55.0967 29.3193V25.2013C55.0967 24.2436 55.1228 23.6602 56.2459 23.6602C59.2844 23.6602 59.6327 26.2808 59.6327 27.1689C59.6327 30.2247 57.2123 30.2247 56.3243 30.2247ZM131.322 36.0663C131.799 36.9014 132.139 37.4959 132.817 37.5989C133.331 37.6773 133.453 37.773 133.47 38.0342C133.47 38.2867 133.226 38.3302 133.052 38.3302H129.822C129.4 38.3302 129.293 38.1253 129.051 37.6631C129.038 37.6395 129.026 37.6152 129.013 37.5902L126.044 32.0008C125.504 30.9474 125.382 30.8516 124.276 30.8516C123.858 30.8516 123.806 30.9996 123.806 31.4175V35.8316C123.806 36.8589 123.806 37.5293 125.034 37.5989C125.565 37.625 125.913 37.6512 125.913 38.0168C125.913 38.3431 125.63 38.3407 125.437 38.3392C125.424 38.3391 125.412 38.3389 125.4 38.3389C125.082 38.3389 123.857 38.2937 123.09 38.2654C122.741 38.2526 122.487 38.2432 122.457 38.2432C122.251 38.2432 121.665 38.2664 121.071 38.29C120.458 38.3143 119.835 38.3389 119.61 38.3389C119.598 38.3389 119.586 38.339 119.574 38.3391C119.38 38.3407 119.096 38.3429 119.096 37.9994C119.096 37.6599 119.462 37.6337 119.976 37.6076C121.177 37.5119 121.177 36.8676 121.177 35.8403V25.445C121.177 24.4438 121.177 23.7734 119.976 23.7038C119.444 23.6777 119.096 23.6602 119.096 23.312C119.096 22.9637 119.192 22.9637 120.002 22.9637C120.118 22.9637 120.45 22.9854 120.799 23.0082C121.184 23.0332 121.588 23.0595 121.743 23.0595C122.064 23.0595 122.999 23.0369 123.959 23.0136C124.975 22.989 126.02 22.9637 126.401 22.9637C130.745 22.9637 131.111 25.95 131.111 26.8119C131.111 29.685 128.586 30.2683 127.75 30.4424C127.767 30.4534 127.785 30.4643 127.802 30.4751C128.097 30.6616 128.391 30.8471 128.926 31.818L131.302 36.0318L131.322 36.0663ZM123.798 29.3193C123.798 30.1725 123.798 30.2247 125.025 30.2247C125.904 30.2247 128.334 30.2247 128.334 27.1689C128.334 26.2808 127.985 23.6602 124.947 23.6602C123.824 23.6602 123.798 24.2436 123.798 25.2013V29.3193Z" fill="white"/>
</g>
</g>
<defs>
<clipPath id="clip0_38_25">
<rect width="136" height="55" fill="white"/>
</clipPath>
</defs>
</svg>
