<svg width="100" height="55" viewBox="0 0 100 55" fill="none" xmlns="http://www.w3.org/2000/svg">
<g clip-path="url(#clip0_38_31)">
<path d="M99.8056 23.6091L99.5381 27.042H98.1115C95.8824 27.042 94.7233 28.8253 94.7233 30.564V38.3213H90.7554V23.6091H94.5004L94.5895 25.437C95.392 24.1887 96.774 23.6091 98.4681 23.6091H99.8056ZM72.2538 38.3213H68.286V30.5194C68.286 28.8698 68.1523 26.8191 65.834 26.8191C63.6049 26.8191 62.7578 28.424 62.7578 30.2519V38.2767H58.7454V23.5645H62.4457L62.5349 25.437C63.3374 24.1887 64.8086 23.2079 66.9486 23.2079C70.961 23.2079 72.2093 26.0612 72.2093 29.0482L72.2538 38.3213ZM57.0067 34.8884L56.7392 38.2321C55.803 38.4996 54.9559 38.5888 53.9306 38.5888C50.1856 38.5888 49.1157 36.85 49.1157 33.4172V19.463H53.0835V23.6091H57.0513L56.7838 27.042H53.0835V33.1051C53.0835 34.4872 53.4847 35.2451 54.8668 35.2451C55.4909 35.2451 56.1596 35.2005 57.0067 34.8884ZM47.7782 23.6091L47.4661 27.042H46.3962C44.167 27.042 43.0525 28.8253 43.0525 30.564V38.3213H39.0847V23.6091H42.8742L42.9633 25.437C43.7658 24.1887 45.1479 23.6091 46.842 23.6091H47.7782ZM21.1181 36.7163C18.3985 38.1429 15.7236 38.99 12.157 38.9008C5.55887 38.6779 0.788574 34.6209 0.788574 27.6661C0.788574 20.7559 5.60345 16.3868 12.157 16.2531C15.5007 16.2085 18.4431 17.0555 20.7614 19.1063L17.9527 21.9596C16.5261 20.7113 14.3861 19.998 11.8895 20.1317C7.74339 20.31 5.29137 23.3416 5.20221 27.4432C5.15763 31.9014 7.87714 34.9776 12.157 35.1113C14.1632 35.1559 15.6344 34.8884 16.8827 34.3089V29.7615H12.4245L12.7366 26.0166H21.0735L21.1181 36.7163ZM88.9721 32.3918H78.0495C78.3616 34.2643 79.8328 35.4234 81.6607 35.468C83.444 35.5126 84.4693 34.9776 85.7622 33.6401L88.348 35.6017C86.5201 37.8754 84.291 38.7225 81.7498 38.7225C77.2916 38.7225 73.9925 35.6017 73.9925 31.0098C73.9925 26.3732 77.2916 23.297 81.5715 23.297C86.2972 23.297 88.883 26.1503 88.883 31.2327V32.3918H88.9721ZM84.9598 29.2711C84.826 27.3986 83.444 26.2395 81.5269 26.3286C79.6099 26.4178 78.317 27.6661 78.0495 29.2711H84.9598ZM36.5435 28.6915V38.3213H33.0215L32.9323 36.85C31.8624 38.1875 30.1237 38.6779 28.2958 38.6779C25.5763 38.6779 23.0351 37.3404 22.9905 34.2197C22.9013 29.3156 28.4741 29.0036 31.9961 29.0036H32.7094V28.8253C32.7094 27.2203 31.6395 26.3286 29.6333 26.3286C28.2066 26.3286 26.78 26.9082 25.71 27.889L23.4363 25.5708C25.5317 23.8766 27.6716 23.2525 29.9899 23.2525C34.5373 23.2525 36.5435 25.3478 36.5435 28.6915ZM32.7094 31.9014H32.1744C30.302 31.9014 27.0029 31.9906 27.0029 33.9522C27.0029 36.7163 32.754 35.8247 32.754 32.481L32.7094 31.9014ZM96.6849 36.6271C96.6849 35.6909 97.3982 34.9776 98.2898 34.9776C99.1815 34.9776 99.8948 35.6909 99.8948 36.6271C99.8948 37.5634 99.1815 38.2767 98.2898 38.2767C97.3982 38.2767 96.6849 37.5634 96.6849 36.6271ZM98.3344 38.5888C99.4044 38.5888 100.341 37.7417 100.341 36.5826C100.341 35.4234 99.4044 34.6209 98.3344 34.6209C97.2644 34.6209 96.3282 35.468 96.3282 36.5826C96.2836 37.7863 97.2199 38.5888 98.3344 38.5888ZM97.8886 36.7609H98.2898L98.8694 37.7417H99.2707L98.6019 36.7163C98.9586 36.6717 99.1815 36.4934 99.1815 36.0921C99.1815 35.6463 98.914 35.4234 98.379 35.4234H97.4874V37.6971H97.844L97.8886 36.7609ZM97.8886 36.4934V35.7801H98.379C98.6019 35.7801 98.8694 35.8247 98.8694 36.1367C98.8694 36.4934 98.6019 36.4934 98.3344 36.4934H97.8886Z" fill="white"/>
</g>
<defs>
<clipPath id="clip0_38_31">
<rect width="100" height="55" fill="white"/>
</clipPath>
</defs>
</svg>
