<svg width="99" height="55" viewBox="0 0 99 55" fill="none" xmlns="http://www.w3.org/2000/svg">
<g clip-path="url(#clip0_38_19)">
<mask id="mask0_38_19" style="mask-type:luminance" maskUnits="userSpaceOnUse" x="-1" y="12" width="100" height="31">
<path d="M98.5 12H-0.5V42.0341H98.5V12Z" fill="white"/>
</mask>
<g mask="url(#mask0_38_19)">
<path fill-rule="evenodd" clip-rule="evenodd" d="M95.2713 32.8663V32.9038C93.0863 35.8622 89.6249 37.6042 85.9532 37.5967C79.9464 37.5967 75.5539 33.2042 75.5539 27.1523C75.5539 21.1004 80.0215 16.5052 85.9758 16.5052C89.5949 16.5502 92.9737 18.3072 95.0911 21.2431L98.3423 18.3072C97.0358 16.3926 95.2638 14.8458 93.1915 13.8021C90.9239 12.6308 88.401 12.0076 85.8481 12.0001C81.8986 11.9625 78.0918 13.4718 75.2386 16.2124C73.842 17.5789 72.7307 19.2083 71.9799 21.0103C71.1764 22.9625 70.7635 25.0499 70.7785 27.1598C70.7635 29.2472 71.1614 31.312 71.9573 33.2417C72.6932 35.0062 73.7894 36.6055 75.171 37.9345C78.0242 40.6226 81.816 42.0943 85.7355 42.0342C88.3409 42.0342 90.9164 41.426 93.244 40.2472C95.3239 39.181 97.1259 37.6342 98.5 35.7421L95.2713 32.8663ZM34.6926 12.3829H39.3404V41.6437H34.6926V12.3829ZM59.6808 13.5018C61.4678 14.1776 63.0972 15.2213 64.4712 16.5503C65.8077 17.8643 66.8514 19.4411 67.5497 21.1755C68.2856 23.0377 68.6535 25.0199 68.6385 27.0172C68.661 29.0295 68.2856 31.0267 67.5497 32.8964C66.8589 34.6383 65.8077 36.2151 64.4712 37.5291C63.0972 38.8506 61.4678 39.8718 59.6808 40.5325C57.6985 41.2834 55.5886 41.6663 53.4637 41.6663H42.9968V12.383H53.4637C55.5886 12.3755 57.691 12.751 59.6808 13.5018ZM53.4787 37.6718C59.6583 37.6718 63.9907 33.3093 63.9907 27.0622V27.0172C63.9907 20.665 59.7559 16.3851 53.4938 16.3851H47.5545V37.6718H53.4787ZM9.8993 41.5312C8.11978 40.923 6.46791 39.9994 5.02627 38.7981V38.7831C4.93616 38.708 4.89111 38.6029 4.89111 38.4827C4.89111 38.2725 5.0563 38.1073 5.26654 38.1073H11.9416C12.0693 38.1073 12.1894 38.1749 12.2645 38.28C12.6399 38.8807 13.3007 39.2486 14.0065 39.2561H23.0993C23.1969 39.2561 23.287 39.3012 23.3396 39.3838C23.4222 39.5189 23.3846 39.6916 23.257 39.7817C22.1607 40.51 20.9744 41.1032 19.728 41.5312C19.6454 41.5537 19.5628 41.5687 19.4802 41.5687H10.1396C10.057 41.5687 9.9744 41.5537 9.8993 41.5312ZM24.5934 15.2364C23.1818 14.065 21.575 13.1565 19.8481 12.5483C19.6829 12.4957 19.5177 12.4657 19.345 12.4657H10.2672C10.0945 12.4657 9.9293 12.4957 9.7641 12.5483C8.56273 12.9763 7.42143 13.5469 6.36273 14.2527C6.22757 14.3278 6.18252 14.5005 6.25761 14.6357C6.31017 14.7183 6.40027 14.7633 6.49788 14.7633H15.6132C16.3341 14.7633 17.0023 15.1387 17.3853 15.7544C17.4603 15.8596 17.5805 15.9271 17.7081 15.9271H24.3457C24.5559 15.9271 24.7286 15.7544 24.7286 15.5442C24.7286 15.4241 24.6835 15.3114 24.5934 15.2364ZM29.5341 25.8684C29.842 25.8684 30.0973 26.1087 30.1123 26.4165H30.1048C30.1198 26.6193 30.1198 26.8145 30.1048 27.0172C30.1048 27.2209 30.0934 27.4246 30.0821 27.6273C30.0709 27.8281 30.0597 28.0281 30.0597 28.2261C30.0372 28.624 29.7068 28.9319 29.3089 28.9319H7.21877C6.99352 28.9319 6.79078 28.8042 6.69317 28.609C6.57304 28.3387 6.30273 28.166 6.00239 28.166H0.070648C-0.237201 28.1735 -0.492491 27.9257 -0.5 27.6179V27.0172C-0.5 26.6118 -0.5 26.2063 -0.439932 25.8083C-0.417406 25.4104 -0.087031 25.1025 0.310922 25.1025H22.401C22.6188 25.1025 22.8215 25.2302 22.9191 25.4254C23.0392 25.7032 23.3171 25.8684 23.6174 25.8684H29.5341ZM19.9907 21.2732C20.6439 21.2732 21.2521 21.6036 21.605 22.1592C21.7101 22.3244 21.8978 22.422 22.0931 22.422H28.618C28.9333 22.422 29.1811 22.1592 29.1811 21.8439C29.1811 21.7838 29.1736 21.7237 29.1511 21.6712C28.7982 20.7326 28.3552 19.8316 27.8296 18.9756C27.6944 18.7504 27.4391 18.6077 27.1763 18.6152H2.42821C2.1579 18.6002 1.90261 18.7278 1.75244 18.9531C1.42207 19.4787 1.12923 20.0343 0.86644 20.5975C0.75381 20.8377 0.85893 21.1156 1.09169 21.2282C1.15176 21.2582 1.22685 21.2732 1.29442 21.2732H19.9907ZM7.99951 31.8753C8.3449 32.431 8.95309 32.7614 9.6063 32.7614H28.2801C28.3476 32.7614 28.4152 32.7764 28.4753 32.8064C28.7155 32.919 28.8207 33.1968 28.7155 33.4371C28.4527 34.0003 28.1599 34.5559 27.8295 35.0815C27.6944 35.3067 27.4391 35.4419 27.1763 35.4419H2.39814C2.13534 35.4419 1.88756 35.3067 1.75241 35.0815C1.24183 34.2255 0.80633 33.3245 0.468451 32.3859C0.438417 32.3259 0.430908 32.2508 0.430908 32.1832C0.430908 31.8678 0.6862 31.6125 1.00156 31.6125H7.51145C7.70668 31.6125 7.89439 31.7102 7.99951 31.8753Z" fill="white"/>
</g>
</g>
<defs>
<clipPath id="clip0_38_19">
<rect width="99" height="55" fill="white"/>
</clipPath>
</defs>
</svg>
