<svg width="123" height="55" viewBox="0 0 123 55" fill="none" xmlns="http://www.w3.org/2000/svg">
<g clip-path="url(#clip0_38_2)">
<path d="M107.564 27.1009C107.915 27.1939 108.224 27.4032 108.44 27.6945C108.657 27.9859 108.768 28.3421 108.756 28.705C108.756 29.7406 108 30.6164 106.464 30.6164C105.859 30.6152 105.254 30.5783 104.653 30.5058V24.3597C104.933 24.3413 105.708 24.3136 106.153 24.3136C107.468 24.3136 108.194 24.8637 108.194 25.9177C108.2 26.1526 108.145 26.3851 108.035 26.5924C107.924 26.7998 107.762 26.975 107.564 27.1009ZM105.72 25.2263V26.8212C105.87 26.8212 106.027 26.8212 106.187 26.8212C106.728 26.8212 107.063 26.4217 107.063 25.8225C107.063 25.7295 107.043 25.6376 107.004 25.5528C106.966 25.4681 106.91 25.3924 106.841 25.3309C106.771 25.2693 106.689 25.2232 106.6 25.1957C106.511 25.1681 106.418 25.1597 106.325 25.171C106.124 25.1729 105.924 25.1914 105.726 25.2263H105.72ZM105.72 27.6233V29.7007C105.944 29.7191 106.178 29.7191 106.427 29.7191C107.183 29.7191 107.628 29.338 107.628 28.6282C107.628 28.0136 107.266 27.6018 106.399 27.6018C106.178 27.6048 105.941 27.6202 105.726 27.6202L105.72 27.6233Z" fill="white"/>
<path d="M111.479 24.79C112.059 24.4886 112.7 24.3225 113.354 24.3045C114.408 24.3045 115.161 24.9191 115.161 25.841C115.161 27.101 113.744 28.3671 112.736 29.5809H115.225V30.5029H111.451V29.5809C112.419 28.2565 114.11 27.0272 114.11 25.9179C114.11 25.3862 113.719 25.1803 113.169 25.1803C112.651 25.1964 112.145 25.3411 111.697 25.6013L111.479 24.79Z" fill="white"/>
<path d="M121.307 27.1009C121.657 27.1939 121.967 27.4032 122.183 27.6945C122.4 27.9859 122.511 28.3421 122.499 28.705C122.499 29.7406 121.743 30.6164 120.206 30.6164C119.601 30.6152 118.997 30.5783 118.396 30.5058V24.3597C118.676 24.3413 119.45 24.3136 119.896 24.3136C121.211 24.3136 121.937 24.8637 121.937 25.9177C121.943 26.1526 121.888 26.3851 121.778 26.5924C121.667 26.7998 121.505 26.975 121.307 27.1009ZM119.463 25.2263V26.8212C119.613 26.8212 119.77 26.8212 119.93 26.8212C120.471 26.8212 120.806 26.4217 120.806 25.8225C120.805 25.7295 120.786 25.6376 120.747 25.5528C120.709 25.4681 120.653 25.3924 120.583 25.3309C120.514 25.2693 120.432 25.2232 120.343 25.1957C120.254 25.1681 120.16 25.1597 120.068 25.171C119.867 25.1729 119.667 25.1914 119.469 25.2263H119.463ZM119.463 27.6233V29.7007C119.687 29.7191 119.921 29.7191 120.17 29.7191C120.925 29.7191 121.371 29.338 121.371 28.6282C121.371 28.0136 121.008 27.6018 120.142 27.6018C119.927 27.6048 119.684 27.6202 119.469 27.6202L119.463 27.6233Z" fill="white"/>
<path d="M40.3283 24.3506H40.3651C40.7646 24.3322 41.287 24.3045 41.7173 24.3045C43.0602 24.3045 43.9545 24.9959 43.9545 26.2805C43.9545 27.3161 43.2753 28.1919 41.8187 28.1919C41.5114 28.1919 41.2594 28.1919 41.0258 28.1643V30.5029H40.3252L40.3283 24.3506ZM41.0289 24.9376V27.5466C41.2532 27.565 41.5145 27.5742 41.7941 27.5742C42.716 27.5742 43.1831 27.0979 43.1831 26.2037C43.1831 25.4385 42.8205 24.916 41.7757 24.916C41.5114 24.9191 41.2502 24.9283 41.0289 24.9376Z" fill="white"/>
<path d="M51.9449 30.5027H51.152L50.2486 28.4346H47.4828L46.6623 30.5027H45.9463L48.4047 24.3566H49.2529L51.9449 30.5027ZM47.7594 27.78H49.9597L48.8042 25.131L47.7594 27.78Z" fill="white"/>
<path d="M54.6581 24.3506C55.0975 24.3322 55.6076 24.3045 56.0471 24.3045C57.39 24.3045 58.2844 24.9191 58.2844 26.0746C58.2962 26.4765 58.1648 26.8695 57.9137 27.1836C57.6627 27.4976 57.3083 27.7123 56.9137 27.7893L59.2707 30.5029H58.4041L56.0871 27.8754C55.8075 27.8754 55.5647 27.8754 55.3404 27.8477V30.5059H54.6396L54.6581 24.3506ZM55.3587 24.9376V27.2393C55.583 27.2577 55.8443 27.2577 56.124 27.2577C57.0459 27.2577 57.513 26.8183 57.513 26.0008C57.513 25.3586 57.1503 24.9191 56.1055 24.9191C55.8412 24.9191 55.58 24.9283 55.3556 24.9376H55.3587Z" fill="white"/>
<path d="M67.206 30.5028H66.4131L65.5096 28.4347H62.7593L61.9265 30.5028H61.1797L63.6382 24.3567H64.4863L67.206 30.5028ZM63.0205 27.7801H65.2208L64.0776 25.1342L63.0205 27.7801Z" fill="white"/>
<path d="M69.9162 24.3505H69.9623C70.5492 24.3321 71.296 24.3044 71.9474 24.3044C72.7201 24.2758 73.4776 24.5243 74.0832 25.0051C74.7347 25.592 75.0236 26.4955 75.0236 27.4943C75.0236 29.1721 74.0832 30.6165 72.0489 30.6165C71.3355 30.6162 70.6226 30.5793 69.9131 30.5058L69.9162 24.3505ZM70.6168 24.9467V29.9435C71.0071 29.9804 71.4926 29.9988 72.0243 29.9988C73.4963 29.9988 74.2522 29.1138 74.2522 27.4174C74.2522 25.927 73.6653 24.919 72.0058 24.919C71.5141 24.919 71.0102 24.9282 70.6199 24.9467H70.6168Z" fill="white"/>
<path d="M79.0464 30.5028H78.3457V24.3567H79.0464V30.5028Z" fill="white"/>
<path d="M87.4911 29.9896C86.8519 30.4056 86.1024 30.6197 85.34 30.6042C83.3087 30.6042 82.3652 29.1598 82.3652 27.4819C82.3652 25.7211 83.4101 24.2952 85.4383 24.2952C86.1144 24.2917 86.7839 24.4277 87.405 24.6947L87.2084 25.3646C86.654 25.0433 86.0203 24.8846 85.3799 24.9067C83.7204 24.9067 83.1335 25.9147 83.1335 27.4051C83.1335 29.1014 83.8895 29.9865 85.3615 29.9865C85.8531 29.9853 86.3389 29.8806 86.7874 29.6792V27.946H87.488L87.4911 29.9896Z" fill="white"/>
<path d="M93.9162 29.627L96.0028 24.3505H96.8969V30.4967H96.1995V25.8502L94.3157 30.5028H93.4767L91.5837 25.841V30.5028H90.8831V24.3567H91.8234L93.9162 29.627Z" fill="white"/>
<path d="M-0.5 34.9096V19.7195L5.53548 22.4207V37.6139L-0.5 34.9096Z" fill="white"/>
<path d="M15.7752 27.0118L9.7981 24.3291V39.513L15.7752 42.1958V27.0118Z" fill="white"/>
<path d="M21.7543 24.3323L15.768 21.6526L9.79395 24.3292L15.7741 27.012L21.7543 24.3323Z" fill="#F0F0F0"/>
<path d="M26.0143 22.4207L15.7749 17.7712L5.53548 22.4177L-0.5 19.7195L15.7749 12L32.0498 19.7226L26.0143 22.4207Z" fill="#F0F0F0"/>
<path d="M32.0561 19.7197L26.0208 22.4209V32.2732L17.7142 35.9915V31.7354L21.7584 29.9315V24.3293L15.7812 27.0121V42.196L32.0561 34.9098V19.7197Z" fill="#D7D7D7"/>
</g>
<defs>
<clipPath id="clip0_38_2">
<rect width="123" height="55" fill="white"/>
</clipPath>
</defs>
</svg>
